<svg id="Capa_1" data-name="Capa 1" xmlns="http://www.w3.org/2000/svg" xmlns:xlink="http://www.w3.org/1999/xlink" viewBox="0 0 47 23"><defs><style>.cls-1,.cls-2,.cls-3{fill:none;}.cls-1,.cls-2{clip-rule:evenodd;}.cls-2{clip-path:url(#clip-path);}.cls-4{clip-path:url(#clip-path-2);}.cls-5{clip-path:url(#clip-path-3);}.cls-6{fill:#404051;}</style><clipPath id="clip-path"><polygon class="cls-1" points="1 21.67 46 21.67 46 1.33 1 1.33 1 21.67 1 21.67"/></clipPath><clipPath id="clip-path-2"><polygon class="cls-2" points="1 1.33 46 1.33 46 21.67 1 21.67 1 1.33 1 1.33"/></clipPath><clipPath id="clip-path-3"><polygon class="cls-3" points="1 21.67 46 21.67 46 1.33 1 1.33 1 21.67 1 21.67"/></clipPath></defs><g class="cls-4"><g class="cls-5"><path class="cls-6" d="M6,16.8V3.51H1.24V1.67H8.32V17A2.43,2.43,0,0,0,11,19.73a6.21,6.21,0,0,0,2.53-.61l.58,1.71a8.31,8.31,0,0,1-3.61.8C7.6,21.63,6,20,6,16.8Z"/><path class="cls-6" d="M15.74,9.74H9.5V7.9h8.55V21.3H15.74V9.74Zm-.91-6.42a1.73,1.73,0,0,1,1.83-1.76,1.73,1.73,0,0,1,1.83,1.76,1.71,1.71,0,0,1-1.83,1.77,1.71,1.71,0,0,1-1.83-1.77Z"/><path class="cls-6" d="M19.6,7.9H22l3.11,7.58c.53,1.35,1,2.67,1.5,4h.11c.47-1.3.92-2.62,1.47-4L31.26,7.9h2.22l-5.6,13.4H25.29L19.6,7.9Z"/><path class="cls-6" d="M32.91,14.57a6.75,6.75,0,0,1,6.88-7c3.89,0,6.17,2.51,6.17,6.28a8.53,8.53,0,0,1-.12,1.38H34.43V13.47h10l-.58.63c0-3.17-1.58-4.74-4-4.74s-4.67,1.87-4.67,5.21,2.28,5.24,5.28,5.24a7.4,7.4,0,0,0,4.11-1.27L45.4,20a9.29,9.29,0,0,1-5.22,1.6c-4,0-7.27-2.59-7.27-7.06Z"/></g></g></svg>