<svg xmlns="http://www.w3.org/2000/svg" viewBox="0 0 163.91 202.21"><defs><style>.cls-1{fill:#f5f5f5;}.cls-2{fill:#ebebeb;}.cls-3{fill:#ececfb;}.cls-4{fill:#cbcbee;}.cls-5{fill:#263238;}.cls-6{fill:#e8505b;}.cls-10,.cls-13,.cls-7{opacity:0.4;}.cls-8{fill:#e0e0e0;}.cls-9{fill:#fafafa;}.cls-11{opacity:0.2;}.cls-12{fill:#455a64;}.cls-13,.cls-14{fill:#fff;}</style></defs><g id="Character"><path class="cls-1" d="M141.56,35.78a18.26,18.26,0,1,0-34,9.22h0l0,.07c.7,1.18,1.58,2,2.46,3.27l10.61,14a3.29,3.29,0,0,0,5.26,0l10.43-13.81A39.58,39.58,0,0,0,139,45.05l0,0h0A18.15,18.15,0,0,0,141.56,35.78ZM123.3,43.73a8,8,0,1,1,8-8A8,8,0,0,1,123.3,43.73Z"/><path class="cls-2" d="M155.53,67.12a9.85,9.85,0,1,0-18.34,5h0l0,0c.38.64.85,1.09,1.33,1.76l5.72,7.58a1.78,1.78,0,0,0,2.84,0L152.72,74a22,22,0,0,0,1.43-1.9l0,0h0A9.74,9.74,0,0,0,155.53,67.12Zm-9.85,4.29A4.34,4.34,0,1,1,150,67.07,4.34,4.34,0,0,1,145.68,71.41Z"/><path class="cls-3" d="M44.11,33.51l3,42.82A13.36,13.36,0,0,0,60.45,88.74h0A13.34,13.34,0,0,0,73.77,74.52c-.27-4.08-.51-7.42-.51-7.42s10.37-1.61,10.5-12c.07-6-1-19.57-1.85-30A13.59,13.59,0,0,0,68.36,12.71H62.1A19.18,19.18,0,0,0,44.11,33.51Z"/><path class="cls-4" d="M73.28,67a24.12,24.12,0,0,1-13.51-3.84S63,70.57,73.3,69.64Z"/><path class="cls-5" d="M78.69,37.67a1.47,1.47,0,0,1-1.43,1.49,1.4,1.4,0,0,1-1.52-1.33,1.49,1.49,0,0,1,1.42-1.5A1.43,1.43,0,0,1,78.69,37.67Z"/><path class="cls-5" d="M80.13,35.54c-.19.2-1.31-.63-2.9-.63s-2.76.8-2.93.61.1-.44.61-.81A4,4,0,0,1,77.25,34a3.88,3.88,0,0,1,2.31.74C80.05,35.11,80.22,35.46,80.13,35.54Z"/><path class="cls-5" d="M63.15,37.67a1.47,1.47,0,0,1-1.43,1.49,1.4,1.4,0,0,1-1.52-1.33,1.49,1.49,0,0,1,1.42-1.5A1.43,1.43,0,0,1,63.15,37.67Z"/><path class="cls-5" d="M64.47,35.84c-.18.19-1.31-.64-2.9-.63s-2.76.8-2.93.6.1-.43.61-.8a4,4,0,0,1,2.35-.72,3.87,3.87,0,0,1,2.3.74C64.39,35.41,64.56,35.75,64.47,35.84Z"/><path class="cls-5" d="M70.25,47.65a10.44,10.44,0,0,1,2.59-.46c.4,0,.79-.13.86-.4a2.17,2.17,0,0,0-.27-1.21c-.39-1-.79-2-1.21-3.1-1.67-4.41-2.88-8-2.7-8.1s1.68,3.46,3.35,7.87c.4,1.08.79,2.12,1.15,3.11a2.38,2.38,0,0,1,.21,1.6,1,1,0,0,1-.67.59,2.67,2.67,0,0,1-.69.1A10.1,10.1,0,0,1,70.25,47.65Z"/><path class="cls-5" d="M65.56,48.76c.26,0,.27,1.71,1.75,2.94s3.32,1,3.33,1.27-.41.34-1.19.36a4.28,4.28,0,0,1-2.78-1,3.75,3.75,0,0,1-1.35-2.46C65.25,49.17,65.44,48.75,65.56,48.76Z"/><path class="cls-5" d="M64.88,29.6c-.16.43-1.75.23-3.61.45s-3.39.74-3.63.35c-.11-.19.15-.59.76-1a6.27,6.27,0,0,1,5.52-.61C64.6,29.05,65,29.39,64.88,29.6Z"/><path class="cls-5" d="M79.54,30.93c-.28.37-1.38,0-2.7,0s-2.43.25-2.69-.13c-.11-.19.06-.55.55-.89a3.73,3.73,0,0,1,2.19-.59,3.77,3.77,0,0,1,2.16.72C79.51,30.39,79.66,30.76,79.54,30.93Z"/><path class="cls-3" d="M47.6,41.29c-.17-.08-7.12-2.11-6.89,5S48,51.67,48,51.46,47.6,41.29,47.6,41.29Z"/><path class="cls-4" d="M45.76,48.85s-.12.09-.33.19a1.21,1.21,0,0,1-.92.05,3,3,0,0,1-1.5-2.7,4.05,4.05,0,0,1,.29-1.77,1.42,1.42,0,0,1,.9-1,.64.64,0,0,1,.74.31c.1.2.06.34.09.35s.15-.12.09-.41a.85.85,0,0,0-.3-.44,1,1,0,0,0-.69-.16,1.75,1.75,0,0,0-1.25,1.14,4.17,4.17,0,0,0-.36,2c.09,1.43.86,2.74,1.89,3a1.33,1.33,0,0,0,1.13-.23C45.75,49,45.78,48.86,45.76,48.85Z"/><path class="cls-5" d="M43.66,41.05a3.73,3.73,0,0,1,3.41,1.75c.46,1,.57,2.16,1,3.17a2.5,2.5,0,0,0,2.58,1.67A2.18,2.18,0,0,0,52.15,46a5.83,5.83,0,0,0,0-2.28c-.42-3.31-1.11-6.59-1.24-9.92A17,17,0,0,1,53,24.18c1.75-2.84,5-4.93,8.29-4.66,2.2.18,4.22,1.33,6.41,1.63a8.63,8.63,0,0,0,7.19-2.4c.24-.23,1.34-1,1.34-1a4,4,0,0,0-.74-2.19c-4.34-4-12.16-5.14-17.9-3.7A20.67,20.67,0,0,0,44,22.77c-2.47,5.37-1.74,12.84-.38,18.28"/><path class="cls-6" d="M82,23.55s-27.19-8.75-39,14.78c0,0-1.75-5.89-1.75-9,0-2.1,1.26-14.66,14.17-18.6C55.49,10.68,75,3.25,82,23.55Z"/><path class="cls-5" d="M58.66,24.14a5.91,5.91,0,0,0,9.42.85,3.48,3.48,0,0,0,6.59-.34,8,8,0,0,0,2.65,1.93,2.69,2.69,0,0,0,3-.63,2.64,2.64,0,0,0-.19-3.12A6.54,6.54,0,0,0,77.39,21a20,20,0,0,0-10.26-1.55,13.78,13.78,0,0,0-9,4.9"/><g class="cls-7"><path d="M82,23.55a12.67,12.67,0,0,0-8.65-3.93c-8-.35-23,4.16-30.31,18.71,0,0-1.75-5.89-1.75-9,0-2.1,1.26-14.66,14.17-18.6C55.49,10.68,75,3.25,82,23.55Z"/></g><path class="cls-6" d="M44.21,35.57A51.1,51.1,0,0,1,60.05,20.4c6.25-3.9,16.59-7.77,23.71-9.66a15.41,15.41,0,0,1,6.55-.68,5.87,5.87,0,0,1,4.85,4c.68,2.68-4.08,6.83-6.32,8.46a73.34,73.34,0,0,1-6.81,4s.06-5-7.91-6C63.27,19.1,44.21,35.57,44.21,35.57Z"/><path class="cls-8" d="M66.51,15.25a25.85,25.85,0,0,1,7.85-2.67,10.3,10.3,0,0,0-2.13-1.28,20.2,20.2,0,0,0-6.12,2.06Z"/><path class="cls-6" d="M88.58,76,80,74.12l-3.5-.88-2.93-4.53s-1.39,8.1-6.61,12.46a6.06,6.06,0,0,1-5.14,1.23c-1.18-.25-2.57-.55-3.6-.83a6.44,6.44,0,0,1-.71-.23,16.76,16.76,0,0,1-8.88-7.66c-1.16-2.06-2.14-4.17-1.81-5l-4.09,8.48L18.56,88.3,4.87,121.74l26.54,7.85.82,27.55-5,34.75,75.09.05-2.66-77.32"/><path class="cls-5" d="M69.17,106h-.48l-1.33,0-4.77-.17h-.1v-.09c-.08-2.07-.18-4.52-.28-7.15-.13-3.78-.24-7.2-.32-9.71,0-1.22-.06-2.22-.07-2.94v-.81c0-.18,0-.28,0-.28a1.33,1.33,0,0,1,0,.28c0,.21,0,.48,0,.8,0,.73.09,1.72.15,2.94.1,2.51.24,5.93.39,9.71.09,2.63.17,5.08.24,7.15l-.1-.1,4.77.26,1.34.09A2.65,2.65,0,0,1,69.17,106Z"/><path class="cls-5" d="M65.07,94.78a.68.68,0,0,1,.36-.12,1.46,1.46,0,0,1,1,.28,1.53,1.53,0,0,1,.48.55,1.36,1.36,0,0,1,.13.83,1.7,1.7,0,0,1-1.22,1.39,1.79,1.79,0,0,1-1.75-.63,1.71,1.71,0,0,1-.33-1.48,1.76,1.76,0,0,1,.5-.9c.17-.17.3-.22.31-.21s-.1.09-.24.27a1.86,1.86,0,0,0-.4.87,1.54,1.54,0,0,0,.33,1.31,1.57,1.57,0,0,0,1.52.53,1.5,1.5,0,0,0,1.07-1.18,1.28,1.28,0,0,0-.5-1.22,1.51,1.51,0,0,0-.88-.31C65.21,94.76,65.08,94.8,65.07,94.78Z"/><path class="cls-5" d="M64.27,85.07s.11-.11.38-.17a1.71,1.71,0,0,1,1.12.16,1.61,1.61,0,0,1,.6.54,1.41,1.41,0,0,1,.25.89,1.78,1.78,0,0,1-1.21,1.63,1.83,1.83,0,0,1-1.92-.67,1.54,1.54,0,0,1-.33-.86,1.67,1.67,0,0,1,.12-.79,1.86,1.86,0,0,1,.73-.88.78.78,0,0,1,.38-.15s-.13.08-.33.23a1.84,1.84,0,0,0-.62.86,1.52,1.52,0,0,0,.22,1.46,1.63,1.63,0,0,0,1.68.57,1.58,1.58,0,0,0,1.06-1.41,1.39,1.39,0,0,0-.71-1.27,1.73,1.73,0,0,0-1-.22C64.41,85,64.28,85.09,64.27,85.07Z"/><path class="cls-5" d="M61.82,122.16s0,0,.12-.06l.34-.13a13.53,13.53,0,0,0,1.31-.56,17.3,17.3,0,0,0,4.22-3,33.79,33.79,0,0,0,4.84-6,83.88,83.88,0,0,0,4.71-8.22,142,142,0,0,0,6.7-15.86c.75-2.07,1.33-3.76,1.74-4.92l.47-1.34.13-.35,0-.11s0,0,0,.12l-.1.36c-.11.32-.25.78-.43,1.35-.38,1.17-.94,2.87-1.67,5a134,134,0,0,1-6.64,15.91,81,81,0,0,1-4.75,8.23,32.34,32.34,0,0,1-4.9,6,16.84,16.84,0,0,1-4.3,3,11.72,11.72,0,0,1-1.33.51l-.35.12Z"/><path class="cls-9" d="M77.64,113c.2,0,4.77-.31,4.77-.31s-1.89,3.33-3.85,4.58h-4Z"/><path class="cls-5" d="M61,132.26a1.57,1.57,0,0,1,.27-.2l.77-.53c.66-.47,1.62-1.15,2.78-2,2.31-1.76,5.35-4.39,8.62-7.39,1.64-1.5,3.21-2.92,4.57-4.28A35.66,35.66,0,0,0,81.4,114a20.71,20.71,0,0,0,1.84-2.9c.2-.35.33-.64.42-.83a2.18,2.18,0,0,1,.16-.29,1.32,1.32,0,0,1-.11.31c-.09.2-.2.49-.39.86a18.46,18.46,0,0,1-1.79,2.95A34.15,34.15,0,0,1,78.19,118c-1.36,1.37-2.93,2.8-4.57,4.29a112.15,112.15,0,0,1-8.68,7.36c-1.17.87-2.15,1.53-2.83,2-.34.23-.62.39-.8.5A2,2,0,0,1,61,132.26Z"/><path class="cls-5" d="M48.14,183.3l.06-.11.19-.3c.17-.27.42-.65.77-1.14.69-1,1.75-2.32,3.16-3.92,2.83-3.18,6.79-7.51,11.16-12.3s8.34-9.11,11.23-12.25l3.42-3.7.94-1,.25-.26.09-.08a.59.59,0,0,1-.07.1l-.24.27-.9,1-3.37,3.74-11.17,12.3L52.45,177.94c-1.42,1.58-2.5,2.92-3.22,3.87l-.8,1.1-.21.29C48.17,183.27,48.15,183.3,48.14,183.3Z"/><path class="cls-6" d="M88,75.79c.4.59,9.27,1.57,11.44,3.74S123.3,98.28,123.3,98.28l-15.46,20.85-10-2.2Z"/><polygon class="cls-10" points="120.69 96.28 103.33 118.14 107.84 119.13 123.3 98.28 120.69 96.28"/><path class="cls-5" d="M92.71,97.49a3.61,3.61,0,0,1-.18-.72c0-.24-.11-.53-.15-.87s-.11-.72-.14-1.15-.07-.91-.06-1.41,0-1,0-1.62A20.9,20.9,0,0,1,94,84.54c.25-.52.47-1,.73-1.45a12.09,12.09,0,0,1,.72-1.21c.22-.37.46-.68.66-1a6.69,6.69,0,0,1,.54-.69,4,4,0,0,1,.5-.56,4.48,4.48,0,0,1-.43.61c-.14.19-.32.43-.5.72s-.42.59-.63,1-.46.76-.69,1.21-.46.94-.7,1.45A24,24,0,0,0,93,88.11a23,23,0,0,0-.58,3.62c0,.57-.08,1.1-.06,1.6s0,1,0,1.4.07.82.1,1.15.07.63.11.87A4.38,4.38,0,0,1,92.71,97.49Z"/><path class="cls-5" d="M99.66,114.62a44.75,44.75,0,0,1-1.92-4.24,45.49,45.49,0,0,1-1.7-4.33A44.75,44.75,0,0,1,98,110.29,44.33,44.33,0,0,1,99.66,114.62Z"/><path class="cls-5" d="M31.41,99.48s-.41-.66-1.11-1.69a24.73,24.73,0,0,0-3.14-3.74,25.18,25.18,0,0,0-3.82-3c-1.06-.67-1.75-1-1.73-1.06a3.15,3.15,0,0,1,.5.21c.32.15.77.39,1.32.71a21.78,21.78,0,0,1,3.9,3,21.83,21.83,0,0,1,3.11,3.81c.33.54.59,1,.74,1.3A3.36,3.36,0,0,1,31.41,99.48Z"/><polygon class="cls-10" points="4.87 121.73 5.93 119.13 35.3 127.12 34.13 130.39 4.87 121.73"/><path class="cls-9" d="M83.24,111.44H94.42v4.61L80.12,116A31.38,31.38,0,0,0,83.24,111.44Z"/><g class="cls-11"><path d="M43.37,78.2c.41,3.58.84,7.28,2.62,10.42s5.24,5.62,8.81,5.09a10.63,10.63,0,0,0,6-3.72c1.62-1.78,3-3.81,4.75-5.44a20.77,20.77,0,0,0,3.56,3.07A7,7,0,0,0,73.6,88.8a3,3,0,0,0,2.91-2.3,7.27,7.27,0,0,1-4.23.12,11.65,11.65,0,0,1-5-2.3c-1-.77-1.32-1.92-2.56-1.85a4.37,4.37,0,0,0-2.79,1.83,32.15,32.15,0,0,1-4,3.84,6.69,6.69,0,0,1-4.46,1.79c-2.89-.06-5.26-2.33-6.86-4.75a23.76,23.76,0,0,1-3.21-7.26"/></g><path class="cls-5" d="M77.2,73.73a.7.7,0,0,1,0,.25c0,.17.06.42.09.74.07.65.14,1.58.17,2.74a39.31,39.31,0,0,1-.86,9l0,.08v.07l-.07,0a9.8,9.8,0,0,1-5-.13,11.71,11.71,0,0,1-3.67-1.72,9.52,9.52,0,0,1-2-1.85,5.67,5.67,0,0,1-.44-.6c-.09-.15-.14-.22-.13-.23A11.59,11.59,0,0,0,68,84.63a11.86,11.86,0,0,0,3.63,1.64,9.8,9.8,0,0,0,4.83.12l-.08.09V86.4a42.5,42.5,0,0,0,.93-8.94c0-1.15,0-2.09-.09-2.73l0-.74A.86.86,0,0,1,77.2,73.73Z"/><path class="cls-5" d="M63.25,82.79l-.15.28a7.44,7.44,0,0,1-.51.73,19,19,0,0,1-2.26,2.38c-.51.47-1.08,1-1.7,1.5-.31.26-.63.54-1,.81a8.22,8.22,0,0,1-1.14.73,7.06,7.06,0,0,1-2.77.84,5.19,5.19,0,0,1-3-.67,9.3,9.3,0,0,1-2.38-2,21.33,21.33,0,0,1-1.79-2.26,23.42,23.42,0,0,1-2.34-4.27,23,23,0,0,1-1-3.12c-.09-.38-.15-.67-.19-.87s-.05-.31-.05-.31a1.61,1.61,0,0,1,.1.3c.05.19.12.49.23.86a24.62,24.62,0,0,0,1.1,3.07A24,24,0,0,0,46.73,85a26.72,26.72,0,0,0,1.78,2.23,10,10,0,0,0,2.32,2,5.08,5.08,0,0,0,2.9.64,6.91,6.91,0,0,0,2.69-.8,8.39,8.39,0,0,0,1.11-.71c.34-.26.66-.53,1-.79.63-.52,1.2-1,1.72-1.47a22.08,22.08,0,0,0,2.3-2.32c.24-.29.42-.53.54-.7A1.65,1.65,0,0,1,63.25,82.79Z"/><path class="cls-3" d="M53.35,135.58l3.54-5.16s2.44-8.47,2.1-9.65-1.4-5.6-1.15-5.65,2.91-1,4.34,2.5a23.25,23.25,0,0,1,1.29,7,1.61,1.61,0,0,0,1.93,1.5c2.45-.5,6.52-1.27,7.49-1a4.79,4.79,0,0,1,2.78,2.73c.13.6-.84,2-.84,2a3.7,3.7,0,0,1,1.56,1.53c0,.13.09.25.13.37A2.23,2.23,0,0,1,76,133.8l-.38.41s1.49.41,1.68,1.27a5.1,5.1,0,0,1-.06,1.88l-1.39,1.44a2.36,2.36,0,0,1,.72,1.37c.07.79-2,2.73-2,2.73l-9,3.23L62,147Z"/><path class="cls-4" d="M74.85,129.75a29.09,29.09,0,0,1-3.12.68c-1.72.35-3.12.66-3.13.6a3.63,3.63,0,0,1,.88-.31c.56-.16,1.34-.35,2.2-.52s1.66-.31,2.24-.38A3.42,3.42,0,0,1,74.85,129.75Z"/><path class="cls-4" d="M75.68,134.21a14.15,14.15,0,0,1-2.39.85,13.78,13.78,0,0,1-2.45.63,12.8,12.8,0,0,1,2.38-.86A14.47,14.47,0,0,1,75.68,134.21Z"/><path class="cls-4" d="M76.21,138.61a16.24,16.24,0,0,1-2.53,1.23,16.19,16.19,0,0,1-2.62,1,16.24,16.24,0,0,1,2.53-1.23A16.19,16.19,0,0,1,76.21,138.61Z"/><path class="cls-3" d="M32.59,167.49l33.13-22.23-8.35-15.14L27.12,145.67l3.43-16.34L10,123.26l-5.12,28h0c-.79,12.44,9.19,22.49,21.22,19.22h0A21.73,21.73,0,0,0,32.59,167.49Z"/><path class="cls-4" d="M22.75,154.45a1.41,1.41,0,0,1-.12-.42,7.36,7.36,0,0,1-.11-1.17,8.11,8.11,0,0,1,3.35-6.72,6.59,6.59,0,0,1,1-.62,1.53,1.53,0,0,1,.4-.16s-.54.3-1.3.91a8.55,8.55,0,0,0-3.29,6.59C22.67,153.84,22.79,154.44,22.75,154.45Z"/><path class="cls-3" d="M107.84,119.13c.21-.28,23.6,14,23.6,14l7.49,34.16,10.79,4s3.37-38,.81-43.94S122,100.08,122,100.08Z"/><path class="cls-4" d="M136.55,130.48a6.35,6.35,0,0,1-2,1.91,6.25,6.25,0,0,1-2.58,1.05c0-.07,1.17-.43,2.45-1.25S136.49,130.43,136.55,130.48Z"/><polygon class="cls-5" points="79.71 119.2 81.54 151.99 118.92 149.46 117.79 125.06 112.35 117.73 79.71 119.2"/><path class="cls-6" d="M71.21,152.72c.11.63,3.29,30.32,3.29,30.32l55.63-3.87,9.41-1.26-4.34-27.65-6.65-1.59Z"/><path class="cls-10" d="M128.55,148.67l-57.34,4.05c.11.63,3.29,30.32,3.29,30.32l57.92-4Z"/><polygon class="cls-12" points="113.32 149.84 81.54 151.99 79.71 119.2 112.35 117.73 113.32 149.84"/><polygon class="cls-5" points="91.56 118.67 92.23 128.77 93.92 127.8 94.87 128.77 96.04 127.8 97.85 128.77 97.85 118.39 91.56 118.67"/><polygon class="cls-6" points="104.84 150.53 102.66 125.92 123.91 131.78 125.95 148.76 104.84 150.53"/><path class="cls-5" d="M123.9,131.78s0,.06-.13.17l-.41.49-1.56,1.78-5.43,6.09-.08.09-.09-.09-2.89-3-7.56-8-2.28-2.44-.61-.67c-.13-.16-.2-.24-.2-.25a1.73,1.73,0,0,1,.24.22l.64.64,2.33,2.39,7.62,8,2.88,3h-.17l5.49-6c.68-.72,1.22-1.31,1.61-1.73l.44-.46C123.84,131.82,123.9,131.77,123.9,131.78Z"/><path class="cls-5" d="M112,136.34s-1.46,2.93-3.39,6.48-3.53,6.41-3.59,6.38,1.46-2.94,3.38-6.49S111.94,136.31,112,136.34Z"/><path class="cls-5" d="M125.46,148.76c-.06,0-1.53-2.32-3.29-5.25s-3.14-5.35-3.08-5.38,1.53,2.32,3.29,5.25S125.52,148.73,125.46,148.76Z"/><polygon class="cls-6" points="116.24 149.57 114.86 133.9 128.38 137.63 129.69 148.44 116.24 149.57"/><polygon class="cls-13" points="116.24 149.57 114.86 133.9 128.38 137.63 129.69 148.44 116.24 149.57"/><path class="cls-5" d="M128.38,137.63a2.34,2.34,0,0,1-.33.43c-.25.29-.58.68-1,1.14l-3.44,3.89-.08.09-.09-.09-1.84-1.93c-1.89-2-3.59-3.79-4.81-5.1l-1.44-1.56a6.42,6.42,0,0,1-.5-.6,6.12,6.12,0,0,1,.57.53l1.49,1.51c1.25,1.29,3,3.07,4.86,5.06l1.84,1.93h-.17L127,139.1l1-1.09A2.88,2.88,0,0,1,128.38,137.63Z"/><path class="cls-5" d="M120.8,140.53a46,46,0,0,1-2.11,4.15,46.09,46.09,0,0,1-2.33,4,44.69,44.69,0,0,1,2.12-4.15A44.68,44.68,0,0,1,120.8,140.53Z"/><path class="cls-5" d="M129.37,148.44a32.84,32.84,0,0,1-2.13-3.32,30.57,30.57,0,0,1-1.92-3.45,35.32,35.32,0,0,1,2.13,3.33A32.07,32.07,0,0,1,129.37,148.44Z"/><polygon class="cls-14" points="124.86 136.97 124.86 138.23 126.84 138.46 126.94 137.49 124.86 136.97"/><path class="cls-14" d="M117.89,130.57v1.85l3.73.61.21-1.4Z"/><polygon class="cls-6" points="103.33 159.69 103.15 150.53 95.72 151.03 96.51 160.34 103.33 159.69"/><rect class="cls-9" x="115.56" y="165.09" width="12.53" height="11.08" transform="translate(-15.56 12.26) rotate(-5.42)"/><path class="cls-5" d="M128.59,175.55a.71.71,0,0,1,0-.21l-.06-.6c-.06-.53-.14-1.29-.24-2.24-.2-1.94-.48-4.68-.81-8l.11.09-12.47,1.2s.2-.25.11-.13h0v.35l0,.38.07.74c0,.5.09,1,.14,1.47.09,1,.18,1.92.26,2.84.18,1.85.34,3.61.49,5.23l-.12-.09,9-.8,2.56-.22.68-.05h.25a1.18,1.18,0,0,1-.22,0l-.66.08-2.53.27-9.06.91H116v-.11c-.16-1.62-.33-3.38-.51-5.23-.09-.92-.18-1.87-.27-2.84,0-.48-.09-1-.14-1.47l-.07-.74,0-.37v-.37h0l.11-.13,12.47-1.16h.1v.1c.29,3.32.54,6.09.71,8,.08.95.14,1.7.19,2.23l0,.58C128.59,175.49,128.59,175.55,128.59,175.55Z"/><path class="cls-5" d="M126.57,167.16c0,.07-2.18.35-4.87.64s-4.89.46-4.9.39,2.17-.35,4.87-.63S126.56,167.1,126.57,167.16Z"/><path class="cls-5" d="M126.49,169a7.4,7.4,0,0,1-1.34.33c-.83.17-2,.36-3.29.51s-2.47.23-3.32.26a6.58,6.58,0,0,1-1.38,0,9.45,9.45,0,0,1,1.37-.15c.85-.08,2-.19,3.3-.34s2.45-.31,3.29-.44A8.11,8.11,0,0,1,126.49,169Z"/><path class="cls-5" d="M127,173.14a7.71,7.71,0,0,1-1.34.33c-.84.16-2,.36-3.29.51s-2.47.23-3.32.26a7.57,7.57,0,0,1-1.38,0,10.2,10.2,0,0,1,1.37-.16c.84-.07,2-.18,3.3-.33s2.45-.32,3.29-.44A8,8,0,0,1,127,173.14Z"/><path class="cls-5" d="M126.39,171c0,.06-2,.41-4.55.77a42.41,42.41,0,0,1-4.58.53,43.25,43.25,0,0,1,4.55-.77A42.41,42.41,0,0,1,126.39,171Z"/><path class="cls-3" d="M137.4,188.12s10.27-6.79,11.06-10.27,1.26-6.63,1.26-6.63l-11-4.55,1.09,4s-3.93,2.34-4.33,5.17c-.27,1.89-5.36,5.12-5.36,5.12h0a4.17,4.17,0,0,0-3.52-1.51l-4.28.3,2.89,6.51Z"/><path class="cls-4" d="M141.41,178.81a1.79,1.79,0,0,1-.48.19c-.32.11-.8.22-1.36.4a5.37,5.37,0,0,0-1.78,1,9,9,0,0,1-2.2,1.39,7.47,7.47,0,0,1-4.66.39,2.42,2.42,0,0,1-.77-.29.58.58,0,0,1-.29-.57.43.43,0,0,1,.23-.33.22.22,0,0,1,.14,0s-.05,0-.12,0a.47.47,0,0,0-.16.3.46.46,0,0,0,.27.45,2.57,2.57,0,0,0,.74.24,7.66,7.66,0,0,0,4.53-.45,9,9,0,0,0,2.15-1.35,5.62,5.62,0,0,1,1.87-1c.58-.17,1.06-.25,1.38-.32A2.44,2.44,0,0,1,141.41,178.81Z"/><path class="cls-4" d="M134.3,184.08s-.53-.27-1.4-.63a12.79,12.79,0,0,0-3.56-.89,9.45,9.45,0,0,0-1.05-.05h-.07l0-.05a11,11,0,0,0-1.91-2.25c-.55-.5-.92-.76-.91-.79a1,1,0,0,1,.29.15,7.33,7.33,0,0,1,.72.52,10.06,10.06,0,0,1,2,2.25l-.1-.06c.34,0,.7,0,1.07,0a11.48,11.48,0,0,1,3.61,1,10,10,0,0,1,1,.54C134.19,184,134.31,184.06,134.3,184.08Z"/><path class="cls-4" d="M137.08,182.21c0,.07-.7.33-1.51.79s-1.4.94-1.44.88a5,5,0,0,1,3-1.67Z"/><path class="cls-4" d="M142.64,170a15.25,15.25,0,0,0-1.54.2c-.82.21-1.39.63-1.44.57A2.43,2.43,0,0,1,141,170,2.37,2.37,0,0,1,142.64,170Z"/></g></svg>