<svg xmlns="http://www.w3.org/2000/svg" viewBox="0 0 20.26 18.38"><defs><style>.cls-1{fill:#fff;}</style></defs><g id="Character"><path id="camera-alt" class="cls-1" d="M10.47,14.09a3.75,3.75,0,1,1,3.75-3.75A3.75,3.75,0,0,1,10.47,14.09Zm0-6.5a2.75,2.75,0,1,0,2.75,2.75A2.75,2.75,0,0,0,10.47,7.59Zm-1,2.75a1,1,0,0,1,1-1,.5.5,0,1,0,0-1,2,2,0,0,0-2,2,.5.5,0,0,0,.5.5A.5.5,0,0,0,9.47,10.34Zm3.13-7a.27.27,0,0,1,.24.16l.69,1.84H17a.5.5,0,0,1,.5.5v9a.5.5,0,0,1-.5.5H4a.5.5,0,0,1-.5-.5v-9a.5.5,0,0,1,.5-.5H7.41L8,3.67a.5.5,0,0,1,.47-.33H12.6m0-1H8.51a1.5,1.5,0,0,0-1.4,1l-.39,1H4a1.5,1.5,0,0,0-1.5,1.5v9A1.5,1.5,0,0,0,4,16.34H17a1.5,1.5,0,0,0,1.5-1.5v-9A1.5,1.5,0,0,0,17,4.34H14.22l-.45-1.19a1.26,1.26,0,0,0-1.17-.81Z"/></g></svg>